<?xml version="1.0" encoding="utf-8"?>
<!-- Generator: Adobe Illustrator 16.0.0, SVG Export Plug-In . SVG Version: 6.00 Build 0)  -->
<!DOCTYPE svg PUBLIC "-//W3C//DTD SVG 1.1//EN" "http://www.w3.org/Graphics/SVG/1.1/DTD/svg11.dtd">
<svg version="1.1" id="Layer_1" xmlns="http://www.w3.org/2000/svg" xmlns:xlink="http://www.w3.org/1999/xlink" x="0px" y="0px"
	 width="1190.549px" height="841.891px" viewBox="0 0 1190.549 841.891" enable-background="new 0 0 1190.549 841.891"
	 xml:space="preserve">
<g>
	<g>
		<path fill="#555555" d="M715.053,606.313c-8.852-5.319-17.936-10.666-27.021-15.908c2.136-18.203,2.141-36.616,0.01-54.782
			c9.119-5.262,18.199-10.605,27.008-15.902c14.832-8.912,21.015-27.717,14.378-43.743c0,0,0,0-0.002-0.002l-19.355-46.729
			c-6.638-16.022-24.298-24.952-41.096-20.768c-9.983,2.484-20.183,5.127-30.346,7.854c-11.348-14.358-24.369-27.376-38.745-38.73
			c2.726-10.165,5.37-20.37,7.856-30.355c4.185-16.79-4.744-34.457-20.767-41.095l-46.728-19.355
			c-16.022-6.64-34.832-0.462-43.747,14.373c-5.31,8.836-10.659,17.921-15.907,27.021c-18.198-2.136-36.607-2.141-54.782-0.011
			c-5.266-9.128-10.61-18.21-15.9-27.01c-8.919-14.832-27.724-21.011-43.747-14.373l-46.729,19.355
			c-16.019,6.636-24.95,24.305-20.766,41.095c2.491,10.006,5.132,20.207,7.854,30.346c-14.356,11.344-27.377,24.369-38.729,38.745
			c-10.188-2.734-20.394-5.375-30.359-7.858c-16.795-4.188-34.458,4.749-41.097,20.77l-19.352,46.727
			c-6.635,16.023-0.454,34.83,14.374,43.742c8.839,5.311,17.924,10.658,27.021,15.908c-2.135,18.196-2.14,36.606-0.01,54.782
			c-9.106,5.254-18.187,10.6-27.015,15.904c-14.828,8.913-21.01,27.718-14.373,43.743l19.357,46.729
			c6.636,16.021,24.294,24.954,41.096,20.768c9.972-2.482,20.173-5.124,30.343-7.854c11.348,14.356,24.369,27.373,38.745,38.729
			c-2.729,10.177-5.372,20.382-7.856,30.356c-4.185,16.79,4.744,34.458,20.766,41.095l46.73,19.356
			c4.341,1.798,8.884,2.656,13.38,2.656c12.105,0,23.865-6.215,30.372-17.027c5.27-8.77,10.615-17.851,15.906-27.02
			c18.194,2.133,36.609,2.136,54.782,0.01c5.228,9.063,10.573,18.144,15.9,27.012c8.916,14.831,27.72,21.009,43.747,14.373
			l46.729-19.355c16.019-6.637,24.951-24.305,20.766-41.095c-2.471-9.921-5.111-20.122-7.853-30.346
			c14.353-11.345,27.374-24.367,38.729-38.744c10.159,2.725,20.363,5.366,30.354,7.855c16.79,4.188,34.458-4.742,41.097-20.768
			l19.355-46.73C736.063,634.032,729.882,615.226,715.053,606.313z M676.037,680.475c-9.599-2.404-19.382-4.946-29.109-7.567
			c-13.773-3.705-28.308,1.138-37.029,12.344c-10.023,12.875-21.624,24.478-34.478,34.486
			c-11.192,8.718-16.028,23.247-12.321,37.012c2.637,9.79,5.177,19.567,7.566,29.098l-42.953,17.79
			c-5.109-8.524-10.225-17.234-15.225-25.923c-7.115-12.355-20.81-19.202-34.886-17.459c-16.166,2.008-32.574,2.006-48.761-0.009
			c-14.117-1.753-27.799,5.095-34.912,17.453c-5.062,8.787-10.179,17.502-15.231,25.936l-42.953-17.791
			c2.402-9.582,4.945-19.363,7.569-29.106c3.708-13.771-1.138-28.307-12.344-37.03c-12.875-10.021-24.476-21.621-34.486-34.473
			c-8.715-11.196-23.244-16.03-37.014-12.324c-9.739,2.623-19.519,5.165-29.097,7.565l-17.791-42.951
			c8.484-5.087,17.198-10.203,25.923-15.227c12.356-7.114,19.21-20.805,17.461-34.884c-2.011-16.167-2.006-32.574,0.005-48.762
			c1.756-14.092-5.093-27.798-17.456-34.914c-8.722-5.021-17.437-10.139-25.935-15.234l17.792-42.951
			c9.569,2.398,19.35,4.94,29.107,7.566c13.767,3.71,28.302-1.138,37.03-12.344c10.021-12.875,21.622-24.478,34.473-34.484
			c11.194-8.717,16.03-23.247,12.322-37.017c-2.614-9.708-5.156-19.485-7.565-29.095l42.953-17.79
			c5.071,8.462,10.188,17.173,15.225,25.923c7.116,12.356,20.822,19.221,34.886,17.459c16.159-2.011,32.564-2.011,48.766,0.009
			c14.1,1.756,27.797-5.101,34.91-17.458c5.021-8.722,10.14-17.437,15.229-25.933l42.953,17.79
			c-2.404,9.591-4.946,19.373-7.568,29.109c-3.708,13.77,1.138,28.305,12.344,37.028c12.873,10.022,24.476,21.621,34.486,34.473
			c8.715,11.193,23.239,16.029,37.015,12.323c9.733-2.621,19.51-5.164,29.095-7.566l17.79,42.951
			c-8.474,5.08-17.185,10.195-25.923,15.227c-12.357,7.115-19.212,20.808-17.461,34.886c2.011,16.159,2.008,32.567-0.008,48.766
			c-1.753,14.094,5.099,27.796,17.457,34.911c8.709,5.013,17.424,10.13,25.935,15.23L676.037,680.475z"/>
	</g>
</g>
<g>
	<g>
		<path fill="#555555" d="M571.863,513.867c0,0,0,0-0.001-0.002c-27.099-65.426-102.369-96.606-167.805-69.507
			c-65.424,27.102-96.606,102.379-69.505,167.805c13.127,31.695,37.814,56.378,69.507,69.508
			c15.846,6.562,32.496,9.845,49.146,9.845s33.301-3.282,49.15-9.845C567.78,654.569,598.961,579.294,571.863,513.867z
			 M487.934,646.854c-22.393,9.275-47.056,9.274-69.454,0c-22.393-9.275-39.834-26.719-49.111-49.112
			c-19.151-46.229,2.883-99.419,49.112-118.567c11.321-4.689,23.056-6.909,34.608-6.909c35.627,0,69.497,21.113,83.959,56.022
			C556.196,574.516,534.162,627.705,487.934,646.854z"/>
	</g>
</g>
<g>
	<g>
		<path fill="#555555" d="M990.821,165.971c-6.506-0.974-13.187-1.919-19.915-2.816c-3.391-11.275-7.919-22.207-13.506-32.589
			c4.117-5.385,8.175-10.78,12.097-16.08c8.707-11.775,7.447-28.475-2.927-38.844l-25.993-25.99
			c-10.374-10.375-27.074-11.634-38.846-2.924c-5.317,3.935-10.711,7.992-16.08,12.094c-10.38-5.587-21.31-10.116-32.588-13.508
			c-0.899-6.729-1.842-13.409-2.815-19.913C848.082,10.921,835.384,0,820.714,0h-36.761c-14.671,0-27.368,10.921-29.533,25.4
			c-0.972,6.5-1.916,13.182-2.815,19.913c-11.278,3.392-22.21,7.92-32.589,13.508c-5.365-4.104-10.762-8.162-16.078-12.094
			c-11.774-8.71-28.475-7.452-38.845,2.922l-25.99,25.988c-10.376,10.373-11.637,27.074-2.927,38.851
			c3.918,5.298,7.977,10.694,12.092,16.078c-5.584,10.38-10.114,21.31-13.506,32.589c-6.728,0.899-13.41,1.843-19.913,2.816
			c-14.481,2.167-25.403,14.863-25.403,29.535v36.759c0,14.67,10.919,27.368,25.4,29.535c6.505,0.974,13.186,1.919,19.914,2.817
			c3.393,11.277,7.921,22.207,13.506,32.588c-4.112,5.38-8.17,10.773-12.097,16.08c-8.705,11.771-7.447,28.475,2.927,38.842
			l25.993,25.993c10.373,10.376,27.072,11.632,38.846,2.924c5.317-3.932,10.711-7.991,16.078-12.092
			c10.384,5.587,21.315,10.115,32.59,13.506c0.896,6.728,1.842,13.409,2.815,19.914c2.167,14.48,14.864,25.401,29.535,25.401h36.761
			c14.67,0,27.368-10.918,29.533-25.402c0.972-6.505,1.916-13.186,2.815-19.915c11.276-3.389,22.206-7.92,32.588-13.508
			c5.366,4.104,10.763,8.163,16.078,12.096c11.772,8.71,28.475,7.452,38.846-2.922l25.993-25.99
			c10.374-10.372,11.634-27.073,2.924-38.849c-3.923-5.305-7.981-10.701-12.092-16.076c5.584-10.381,10.114-21.309,13.506-32.589
			c6.728-0.899,13.409-1.843,19.913-2.816c14.481-2.167,25.402-14.863,25.402-29.536v-36.758
			C1016.22,180.835,1005.3,168.138,990.821,165.971z M980.42,227.149c-5.907,0.856-11.934,1.688-17.979,2.476
			c-11.959,1.561-21.749,10.048-24.937,21.621c-3.053,11.081-7.484,21.774-13.169,31.781c-5.938,10.446-5.021,23.374,2.333,32.939
			c3.708,4.821,7.387,9.674,10.967,14.469l-18.752,18.753c-4.81-3.589-9.662-7.266-14.474-10.966
			c-9.56-7.358-22.491-8.268-32.938-2.337c-10.01,5.687-20.702,10.118-31.777,13.172c-11.579,3.189-20.066,12.979-21.622,24.936
			c-0.788,6.046-1.618,12.074-2.477,17.98h-26.522c-0.857-5.906-1.688-11.933-2.477-17.974
			c-1.561-11.961-10.047-21.751-21.623-24.941c-11.078-3.052-21.768-7.483-31.779-13.169c-10.448-5.937-23.379-5.023-32.938,2.333
			c-4.812,3.701-9.662,7.377-14.475,10.966l-18.752-18.753c3.579-4.8,7.256-9.649,10.969-14.476
			c7.351-9.562,8.267-22.489,2.33-32.935c-5.685-10.007-10.115-20.702-13.169-31.78c-3.188-11.576-12.978-20.062-24.937-21.623
			c-6.046-0.789-12.074-1.618-17.98-2.478v-26.52c5.906-0.856,11.933-1.688,17.979-2.476c11.96-1.561,21.75-10.048,24.937-21.621
			c3.054-11.08,7.483-21.772,13.169-31.781c5.938-10.446,5.022-23.376-2.33-32.938c-3.714-4.828-7.391-9.679-10.967-14.47
			l18.752-18.754c4.81,3.59,9.66,7.267,14.47,10.964c9.557,7.358,22.485,8.276,32.942,2.338c10.005-5.685,20.7-10.116,31.776-13.171
			c11.579-3.19,20.067-12.98,21.622-24.936c0.79-6.046,1.622-12.073,2.479-17.979h26.522c0.856,5.905,1.688,11.931,2.475,17.974
			c1.561,11.96,10.049,21.751,21.623,24.939c11.079,3.054,21.774,7.487,31.781,13.171c10.45,5.938,23.379,5.015,32.936-2.335
			c4.813-3.7,9.662-7.376,14.476-10.966l18.751,18.754c-3.576,4.793-7.253,9.646-10.968,14.475
			c-7.352,9.56-8.266,22.488-2.333,32.934c5.685,10.011,10.116,20.705,13.17,31.781c3.188,11.576,12.977,20.062,24.936,21.623
			c6.046,0.789,12.074,1.62,17.98,2.478L980.42,227.149L980.42,227.149z"/>
	</g>
</g>
<g>
	<g>
		<path fill="#555555" d="M802.333,137.588c-42.069,0-76.298,34.226-76.298,76.298c0,42.073,34.227,76.299,76.298,76.299
			s76.298-34.226,76.298-76.299C878.631,171.814,844.405,137.588,802.333,137.588z M802.333,256.269
			c-23.367,0-42.382-19.013-42.382-42.384c0-23.371,19.014-42.383,42.382-42.383c23.369,0,42.381,19.014,42.383,42.383
			C844.716,237.255,825.702,256.269,802.333,256.269z"/>
	</g>
</g>
</svg>
