<?xml version="1.0" encoding="utf-8"?>
<!-- Generator: Adobe Illustrator 21.0.0, SVG Export Plug-In . SVG Version: 6.00 Build 0)  -->
<svg version="1.1" id="Layer_1" xmlns="http://www.w3.org/2000/svg" xmlns:xlink="http://www.w3.org/1999/xlink" x="0px" y="0px"
	 viewBox="0 0 1190.5 841.9" style="enable-background:new 0 0 1190.5 841.9;" xml:space="preserve">
<style type="text/css">
	.st0{fill:#47FFA6;stroke:#47FFA6;stroke-width:0.5;stroke-miterlimit:10;}
</style>
<g>
	<g>
		<path class="st0" d="M715.1,606.3c-8.9-5.3-17.9-10.7-27-15.9c2.1-18.2,2.1-36.6,0-54.8c9.1-5.3,18.2-10.6,27-15.9
			c14.8-8.9,21-27.7,14.4-43.7c0,0,0,0,0,0l-19.4-46.7c-6.6-16-24.3-25-41.1-20.8c-10,2.5-20.2,5.1-30.3,7.9
			c-11.3-14.4-24.4-27.4-38.7-38.7c2.7-10.2,5.4-20.4,7.9-30.4c4.2-16.8-4.7-34.5-20.8-41.1l-46.7-19.4c-16-6.6-34.8-0.5-43.7,14.4
			c-5.3,8.8-10.7,17.9-15.9,27c-18.2-2.1-36.6-2.1-54.8,0c-5.3-9.1-10.6-18.2-15.9-27c-8.9-14.8-27.7-21-43.7-14.4l-46.7,19.4
			c-16,6.6-25,24.3-20.8,41.1c2.5,10,5.1,20.2,7.9,30.3c-14.4,11.3-27.4,24.4-38.7,38.7c-10.2-2.7-20.4-5.4-30.4-7.9
			c-16.8-4.2-34.5,4.7-41.1,20.8L177,476c-6.6,16-0.5,34.8,14.4,43.7c8.8,5.3,17.9,10.7,27,15.9c-2.1,18.2-2.1,36.6,0,54.8
			c-9.1,5.3-18.2,10.6-27,15.9c-14.8,8.9-21,27.7-14.4,43.7l19.4,46.7c6.6,16,24.3,25,41.1,20.8c10-2.5,20.2-5.1,30.3-7.9
			c11.3,14.4,24.4,27.4,38.7,38.7c-2.7,10.2-5.4,20.4-7.9,30.4c-4.2,16.8,4.7,34.5,20.8,41.1l46.7,19.4c4.3,1.8,8.9,2.7,13.4,2.7
			c12.1,0,23.9-6.2,30.4-17c5.3-8.8,10.6-17.9,15.9-27c18.2,2.1,36.6,2.1,54.8,0c5.2,9.1,10.6,18.1,15.9,27
			c8.9,14.8,27.7,21,43.7,14.4l46.7-19.4c16-6.6,25-24.3,20.8-41.1c-2.5-9.9-5.1-20.1-7.9-30.3c14.4-11.3,27.4-24.4,38.7-38.7
			c10.2,2.7,20.4,5.4,30.4,7.9c16.8,4.2,34.5-4.7,41.1-20.8l19.4-46.7C736.1,634,729.9,615.2,715.1,606.3z M676,680.5
			c-9.6-2.4-19.4-4.9-29.1-7.6c-13.8-3.7-28.3,1.1-37,12.3c-10,12.9-21.6,24.5-34.5,34.5c-11.2,8.7-16,23.2-12.3,37
			c2.6,9.8,5.2,19.6,7.6,29.1l-43,17.8c-5.1-8.5-10.2-17.2-15.2-25.9c-7.1-12.4-20.8-19.2-34.9-17.5c-16.2,2-32.6,2-48.8,0
			c-14.1-1.8-27.8,5.1-34.9,17.5c-5.1,8.8-10.2,17.5-15.2,25.9l-43-17.8c2.4-9.6,4.9-19.4,7.6-29.1c3.7-13.8-1.1-28.3-12.3-37
			c-12.9-10-24.5-21.6-34.5-34.5c-8.7-11.2-23.2-16-37-12.3c-9.7,2.6-19.5,5.2-29.1,7.6l-17.8-43c8.5-5.1,17.2-10.2,25.9-15.2
			c12.4-7.1,19.2-20.8,17.5-34.9c-2-16.2-2-32.6,0-48.8c1.8-14.1-5.1-27.8-17.5-34.9c-8.7-5-17.4-10.1-25.9-15.2l17.8-43
			c9.6,2.4,19.4,4.9,29.1,7.6c13.8,3.7,28.3-1.1,37-12.3c10-12.9,21.6-24.5,34.5-34.5c11.2-8.7,16-23.2,12.3-37
			c-2.6-9.7-5.2-19.5-7.6-29.1l43-17.8c5.1,8.5,10.2,17.2,15.2,25.9c7.1,12.4,20.8,19.2,34.9,17.5c16.2-2,32.6-2,48.8,0
			c14.1,1.8,27.8-5.1,34.9-17.5c5-8.7,10.1-17.4,15.2-25.9l43,17.8c-2.4,9.6-4.9,19.4-7.6,29.1c-3.7,13.8,1.1,28.3,12.3,37
			c12.9,10,24.5,21.6,34.5,34.5c8.7,11.2,23.2,16,37,12.3c9.7-2.6,19.5-5.2,29.1-7.6l17.8,43c-8.5,5.1-17.2,10.2-25.9,15.2
			c-12.4,7.1-19.2,20.8-17.5,34.9c2,16.2,2,32.6,0,48.8c-1.8,14.1,5.1,27.8,17.5,34.9c8.7,5,17.4,10.1,25.9,15.2L676,680.5z"/>
	</g>
</g>
<g>
	<g>
		<path class="st0" d="M571.9,513.9C571.9,513.9,571.9,513.9,571.9,513.9c-27.1-65.4-102.4-96.6-167.8-69.5
			c-65.4,27.1-96.6,102.4-69.5,167.8c13.1,31.7,37.8,56.4,69.5,69.5c15.8,6.6,32.5,9.8,49.1,9.8s33.3-3.3,49.1-9.8
			C567.8,654.6,599,579.3,571.9,513.9z M487.9,646.9c-22.4,9.3-47.1,9.3-69.5,0c-22.4-9.3-39.8-26.7-49.1-49.1
			c-19.2-46.2,2.9-99.4,49.1-118.6c11.3-4.7,23.1-6.9,34.6-6.9c35.6,0,69.5,21.1,84,56C556.2,574.5,534.2,627.7,487.9,646.9z"/>
	</g>
</g>
<g>
	<g>
		<path class="st0" d="M990.8,166c-6.5-1-13.2-1.9-19.9-2.8c-3.4-11.3-7.9-22.2-13.5-32.6c4.1-5.4,8.2-10.8,12.1-16.1
			c8.7-11.8,7.4-28.5-2.9-38.8l-26-26c-10.4-10.4-27.1-11.6-38.8-2.9c-5.3,3.9-10.7,8-16.1,12.1c-10.4-5.6-21.3-10.1-32.6-13.5
			c-0.9-6.7-1.8-13.4-2.8-19.9C848.1,10.9,835.4,0,820.7,0H784c-14.7,0-27.4,10.9-29.5,25.4c-1,6.5-1.9,13.2-2.8,19.9
			c-11.3,3.4-22.2,7.9-32.6,13.5c-5.4-4.1-10.8-8.2-16.1-12.1c-11.8-8.7-28.5-7.5-38.8,2.9l-26,26c-10.4,10.4-11.6,27.1-2.9,38.9
			c3.9,5.3,8,10.7,12.1,16.1c-5.6,10.4-10.1,21.3-13.5,32.6c-6.7,0.9-13.4,1.8-19.9,2.8c-14.5,2.2-25.4,14.9-25.4,29.5v36.8
			c0,14.7,10.9,27.4,25.4,29.5c6.5,1,13.2,1.9,19.9,2.8c3.4,11.3,7.9,22.2,13.5,32.6c-4.1,5.4-8.2,10.8-12.1,16.1
			c-8.7,11.8-7.4,28.5,2.9,38.8l26,26c10.4,10.4,27.1,11.6,38.8,2.9c5.3-3.9,10.7-8,16.1-12.1c10.4,5.6,21.3,10.1,32.6,13.5
			c0.9,6.7,1.8,13.4,2.8,19.9c2.2,14.5,14.9,25.4,29.5,25.4h36.8c14.7,0,27.4-10.9,29.5-25.4c1-6.5,1.9-13.2,2.8-19.9
			c11.3-3.4,22.2-7.9,32.6-13.5c5.4,4.1,10.8,8.2,16.1,12.1c11.8,8.7,28.5,7.5,38.8-2.9l26-26c10.4-10.4,11.6-27.1,2.9-38.8
			c-3.9-5.3-8-10.7-12.1-16.1c5.6-10.4,10.1-21.3,13.5-32.6c6.7-0.9,13.4-1.8,19.9-2.8c14.5-2.2,25.4-14.9,25.4-29.5v-36.8
			C1016.2,180.8,1005.3,168.1,990.8,166z M980.4,227.1c-5.9,0.9-11.9,1.7-18,2.5c-12,1.6-21.7,10-24.9,21.6
			c-3.1,11.1-7.5,21.8-13.2,31.8c-5.9,10.4-5,23.4,2.3,32.9c3.7,4.8,7.4,9.7,11,14.5l-18.8,18.8c-4.8-3.6-9.7-7.3-14.5-11
			c-9.6-7.4-22.5-8.3-32.9-2.3c-10,5.7-20.7,10.1-31.8,13.2c-11.6,3.2-20.1,13-21.6,24.9c-0.8,6-1.6,12.1-2.5,18h-26.5
			c-0.9-5.9-1.7-11.9-2.5-18c-1.6-12-10-21.8-21.6-24.9c-11.1-3.1-21.8-7.5-31.8-13.2c-10.4-5.9-23.4-5-32.9,2.3
			c-4.8,3.7-9.7,7.4-14.5,11L667,330.4c3.6-4.8,7.3-9.6,11-14.5c7.4-9.6,8.3-22.5,2.3-32.9c-5.7-10-10.1-20.7-13.2-31.8
			c-3.2-11.6-13-20.1-24.9-21.6c-6-0.8-12.1-1.6-18-2.5v-26.5c5.9-0.9,11.9-1.7,18-2.5c12-1.6,21.8-10,24.9-21.6
			c3.1-11.1,7.5-21.8,13.2-31.8c5.9-10.4,5-23.4-2.3-32.9c-3.7-4.8-7.4-9.7-11-14.5l18.8-18.8c4.8,3.6,9.7,7.3,14.5,11
			c9.6,7.4,22.5,8.3,32.9,2.3c10-5.7,20.7-10.1,31.8-13.2c11.6-3.2,20.1-13,21.6-24.9c0.8-6,1.6-12.1,2.5-18h26.5
			c0.9,5.9,1.7,11.9,2.5,18c1.6,12,10,21.8,21.6,24.9c11.1,3.1,21.8,7.5,31.8,13.2c10.5,5.9,23.4,5,32.9-2.3
			c4.8-3.7,9.7-7.4,14.5-11l18.8,18.8c-3.6,4.8-7.3,9.6-11,14.5c-7.4,9.6-8.3,22.5-2.3,32.9c5.7,10,10.1,20.7,13.2,31.8
			c3.2,11.6,13,20.1,24.9,21.6c6,0.8,12.1,1.6,18,2.5L980.4,227.1L980.4,227.1z"/>
	</g>
</g>
<g>
	<g>
		<path class="st0" d="M802.3,137.6c-42.1,0-76.3,34.2-76.3,76.3c0,42.1,34.2,76.3,76.3,76.3s76.3-34.2,76.3-76.3
			C878.6,171.8,844.4,137.6,802.3,137.6z M802.3,256.3c-23.4,0-42.4-19-42.4-42.4s19-42.4,42.4-42.4c23.4,0,42.4,19,42.4,42.4
			C844.7,237.3,825.7,256.3,802.3,256.3z"/>
	</g>
</g>
</svg>
