<?xml version="1.0" encoding="utf-8"?>
<!-- Generator: Adobe Illustrator 21.0.0, SVG Export Plug-In . SVG Version: 6.00 Build 0)  -->
<svg version="1.1" id="Layer_1" xmlns="http://www.w3.org/2000/svg" xmlns:xlink="http://www.w3.org/1999/xlink" x="0px" y="0px"
	 viewBox="0 0 1190.5 841.9" style="enable-background:new 0 0 1190.5 841.9;" xml:space="preserve">
<style type="text/css">
	.st0{fill:#47FFA6;stroke:#47FFA6;stroke-width:8;stroke-miterlimit:10;}
</style>
<g>
	<g>
		<g>
			<path class="st0" d="M1021,385.7c-48.3-61.9-110.9-113.2-180.9-148.1c-71.5-35.7-148.5-54.2-228.8-55.2c-2.2-0.1-11.1-0.1-13.3,0
				c-80.3,1-157.3,19.5-228.8,55.2c-70.1,35-132.6,86.2-180.9,148.1c-18.6,23.9-18.6,57.2,0,81c48.3,61.9,110.9,113.2,180.9,148.1
				C440.7,650.5,517.7,669,598,670c2.2,0.1,11.1,0.1,13.3,0c80.3-1,157.3-19.5,228.8-55.2c70.1-35,132.6-86.2,180.9-148.1
				C1039.6,442.9,1039.6,409.6,1021,385.7z M384.9,583.6c-65.4-32.7-123.8-80.5-169-138.3c-8.7-11.2-8.7-26.8,0-38
				c45.1-57.8,103.5-105.7,169-138.3c18.6-9.3,37.6-17.3,56.9-24.1c-49.7,44.7-81,109.5-81,181.4c0,72,31.3,136.7,81,181.4
				C422.4,600.9,403.4,592.9,384.9,583.6z M604.6,635.2c-115.2,0-208.9-93.7-208.9-208.9s93.7-208.9,208.9-208.9s209,93.6,209,208.9
				C813.6,541.5,719.9,635.2,604.6,635.2z M993.4,445.2c-45.1,57.8-103.5,105.7-169,138.3c-18.6,9.3-37.5,17.3-56.8,24
				c49.7-44.7,81-109.4,81-181.4s-31.3-136.7-81.1-181.4c19.3,6.8,38.3,14.8,56.9,24.1c65.4,32.7,123.8,80.5,169,138.3
				C1002.1,418.5,1002.1,434.1,993.4,445.2z"/>
		</g>
	</g>
</g>
<g>
	<g>
		<path class="st0" d="M604.6,336.8c-49.3,0-89.4,40.1-89.4,89.4s40.1,89.4,89.4,89.4c49.3,0,89.4-40.1,89.4-89.4
			C694.1,377,654,336.8,604.6,336.8z M604.6,480.7c-30,0-54.4-24.4-54.4-54.4s24.4-54.4,54.4-54.4s54.4,24.4,54.4,54.4
			C659.1,456.3,634.6,480.7,604.6,480.7z"/>
	</g>
</g>
</svg>
