<?xml version="1.0" encoding="utf-8"?>
<!-- Generator: Adobe Illustrator 21.0.0, SVG Export Plug-In . SVG Version: 6.00 Build 0)  -->
<svg version="1.1" id="Layer_1" xmlns="http://www.w3.org/2000/svg" xmlns:xlink="http://www.w3.org/1999/xlink" x="0px" y="0px"
	 viewBox="0 0 1190.5 841.9" style="enable-background:new 0 0 1190.5 841.9;" xml:space="preserve">
<style type="text/css">
	.st0{fill:#47FFA6;stroke:#47FFA6;stroke-width:15;stroke-miterlimit:10;}
</style>
<g>
	<g>
		<g>
			<path class="st0" d="M489.4,279.1c-4.7-1-9.5-1.6-15.1-1.6c-51.6,0-93.8,46.2-93.8,102.9c0,24.7,9.1,49.3,24.2,67.5
				c-15.4,19-24.2,43.2-24.2,68.3c0,26.9,9.4,52.3,26.9,71.3c17.8,19.5,41.6,30.1,67,30.1c6.8,0,13.3-0.7,19.4-1.9
				c17,28.3,46.3,45.8,78.5,45.8c17,0,32.2-4,46.3-12.6c13.9,8.3,29.9,12.6,46.1,12.6c32.2,0,60.9-16.2,78.6-44.2
				c4.8,0.3,9.4,0.3,13.9,0.3c25.5,0,49.3-10.7,67-30.1c17.2-19,26.9-44.2,26.9-71.3c0-25-8.6-49-24.2-68.3
				c15.3-18.4,24.2-42.8,24.2-67.5c0-56.8-42.1-102.9-93.7-102.9c-3.2,0-6.4,0.2-9.4,0.4c-16.3-33-48.1-54-83.1-54
				c-16.2,0-32,4.5-46.1,12.6c-14.1-8.5-29.3-12.6-46.3-12.6C536.9,223.9,504.9,245.8,489.4,279.1z M629.6,271.7
				c10.1-8.3,22.3-12.3,35-12.3c24.2,0,46.3,17.8,55.1,44.1c2.8,8.5,11.6,13.7,20.4,12c6-1.1,12-2.2,16.9-2.2
				c32.2,0,58.2,30.1,58.2,67.4c0,20.6-9.5,41.6-24.6,53.3c-4,3.2-6.5,8.3-6.8,13.5c0,0.2,0,0.2,0,0.3l0,0c0,5.1,2.1,10.1,6.5,13.1
				c15.8,13.7,25,33.7,25,55.1c0,36.5-26.2,65.9-58.2,65.9c-6.4,0-13,0-16.6-1.5c-8.6-3.6-18.8,0.3-22.7,8.8
				c-10.7,22.7-30.8,36.5-53.3,36.5c-12.9,0-24.8-4.3-35-12.3c-6.5-5.3-15.8-5.3-22.5,0c-10.5,8.5-21.6,12.3-35,12.3
				c-22.6,0-43.3-14.8-52.8-38.2c-1.9-4.5-5.3-8.1-9.9-9.9c-4.5-1.9-9.4-1.9-13.9,0.2c-6.4,2.8-13.1,4-21.5,4
				c-32.2,0-58.2-29.7-58.2-65.9c0-21.2,9.1-41.3,25-55.1c4-3.6,6.4-8.5,6.3-13.9c-0.2-5.3-2.6-10.1-6.8-13.5
				c-15.1-12-24.6-32.7-24.6-53.3c0-37.2,26.2-67.4,58.2-67.4c6.5,0,12.9,2.1,20,4.7c4.7,1.5,9.9,1.1,14.1-1.2
				c4.3-2.4,7.4-6.3,8.6-11c7.3-27.1,29.9-45.8,54.8-45.8c13.3,0,24.3,3.9,35,12.3C613.9,277.1,623,277.1,629.6,271.7z"/>
			<path class="st0" d="M584.8,411.7l12.9,38.2l-66.3-23.4c-9.3-3.2-19.6,1.6-22.7,10.7c-3.2,9.3,1.6,19.5,10.7,22.7L620,495.7
				c6.5,2.2,13.7,0.7,18.4-4c4.9-4.8,6.5-12,4.5-18.1l-12.9-38l68.8,24.7c9.3,3.4,19.4-1.5,22.7-10.7c0.7-1.9,1.1-4,1.1-6l0,0
				c0-7.3-4.7-14.1-12-17l-103.4-36.9c-6.4-2.4-13.7-0.7-18.4,4C584.4,398.2,582.7,405.5,584.8,411.7z"/>
			<path class="st0" d="M342.5,443.4L342.5,443.4L342.5,443.4z"/>
			<path class="st0" d="M284.2,472.6c4.5-5.3,5.3-12.6,2.4-18.9l-1.1-2.4l34.8,9.3c9.4,2.5,19.1-3.2,21.6-12.6
				c0.3-1.6,0.4-3.1,0.4-4.7c0-7.8-5.3-15.2-13.3-16.9l-72-19.1c-6.8-1.9-13.9,0.4-18.1,5.8c-4.3,5.4-5.3,12.9-2.4,19l1.5,2.8
				l-33.8-8.5c-9.4-2.5-19,3.2-21.5,12.9c-2.5,9.4,3.2,19,12.9,21.5l70.7,17.9C273,480.2,279.7,478,284.2,472.6z"/>
			<path class="st0" d="M304.3,782.1l20-31.8c2.4,5.8,7.8,10.1,14.2,11c7.1,1,13.7-2.2,17.5-8.3l39.4-63.1c1.9-3.1,2.6-6.3,2.6-9.4
				c0-5.8-3.1-11.8-8.4-15.2c-8.4-5.1-19.4-2.6-24.6,5.6L346.2,701c-2.2-5.8-7.6-10-14.1-10.7c-7.1-1-13.7,2.2-17.5,8.3L274.1,763
				c-5.3,8.4-2.8,19.1,5.6,24.6C288.1,793,299,790.5,304.3,782.1z"/>
			<path class="st0" d="M836.1,690l40.6,64.5c3.7,6,10.5,9.1,17.5,8.3c6.4-1,11.8-5.1,14.1-11.1l18.4,30.3c4.9,8.4,15.9,11,24.3,5.8
				c5.6-3.2,8.5-9.1,8.5-15.2l0,0c0-3.1-0.7-6.3-2.2-9.4l-39.4-64.5c-3.6-6-10.5-9.3-17.5-8.4c-6.8,1-12.3,5.6-14.4,12L866.4,671
				c-5.3-8.4-16.2-10.7-24.6-5.6C833.1,670.9,830.5,681.6,836.1,690z"/>
			<path class="st0" d="M945.7,413.3c-4.5,5.3-5.3,12.9-2.4,19l1.5,2.8l-33.8-8.5c-9.4-2.5-19,3.2-21.5,12.9
				c-2.5,9.4,3.2,19,12.9,21.5l70.7,17.8c6.8,1.6,13.7-0.7,18.1-6c4.5-5.3,5.3-12.6,2.2-18.9l-1.1-2.2l34.8,9.3
				c9.4,2.5,19.1-3.2,21.6-12.6c0.3-1.6,0.4-3.1,0.4-4.7c0-7.8-5.3-15.2-13.3-16.9l-72-19.1C957.4,405.6,950.2,407.9,945.7,413.3z"
				/>
			<path class="st0" d="M1049.4,443.4L1049.4,443.4L1049.4,443.4z"/>
			<path class="st0" d="M398.2,204.8L398.2,204.8c0-3.2-1-6.5-2.8-9.4L356,132.2c-3.6-5.8-10.5-9.1-17.5-8.3
				c-6.8,1-12.2,5.6-14.4,12l-19.5-31.2c-5.3-8.4-16.2-10.7-24.6-5.6c-8.4,5.3-10.7,16.2-5.6,24.6l40.6,64.5
				c3.7,6,10.5,9.1,17.5,8.3c6.5-1.1,12.1-5.6,14.2-11.8l18.4,29.6c5.1,8.4,16.2,10.7,24.6,5.6C395.1,216.5,398.2,210.7,398.2,204.8
				z"/>
			<path class="st0" d="M926.7,104.9l-18.4,29.6c-2.1-6.3-7.6-10.7-14.2-11.8c-7.1-1-13.7,2.4-17.5,8.3L836,195.5
				c-5.3,8.4-2.8,19.1,5.6,24.6s19.1,2.8,24.6-5.6l19.6-31.3c2.1,6.4,7.6,11,14.4,12c7.1,1,13.7-2.4,17.5-8.3l39.4-63.1
				c1.9-3.1,2.6-6.3,2.6-9.4l0,0c0-6-2.8-11.8-8.4-15.2C942.8,94.1,931.8,96.5,926.7,104.9z"/>
		</g>
	</g>
</g>
</svg>
