<?xml version="1.0" encoding="utf-8"?>
<!-- Generator: Adobe Illustrator 21.0.0, SVG Export Plug-In . SVG Version: 6.00 Build 0)  -->
<svg version="1.1" id="Layer_1" xmlns="http://www.w3.org/2000/svg" xmlns:xlink="http://www.w3.org/1999/xlink" x="0px" y="0px"
	 viewBox="0 0 1190.5 841.9" style="enable-background:new 0 0 1190.5 841.9;" xml:space="preserve">
<style type="text/css">
	.st0{fill:#555555;stroke:#555555;stroke-width:18;stroke-miterlimit:10;}
</style>
<g>
	<g>
		<path class="st0" d="M959.2,66.9H783.1c-120.4,0-201.3,80.9-201.3,201.3v352.3c0,107-69.1,176.1-176.1,176.1H242.1V633.1
			c0-6.6,0.3-13,0.7-19.3l154,154c2.5,2.5,5.7,3.7,8.9,3.7c3.2,0,6.4-1.2,8.9-3.7c4.9-4.9,4.9-12.9,0-17.8L247.2,582.7
			c6.6-31.1,19.6-56.9,38.5-76.9l211.7,211.7c2.5,2.5,5.7,3.7,8.9,3.7c3.2,0,6.4-1.2,8.9-3.7c4.9-4.9,4.9-12.9,0-17.8L304.7,489.2
			c20.1-14.6,44.7-24.6,73.6-29.2l156.9,156.9c2.5,2.5,5.7,3.7,8.9,3.7s6.4-1.2,8.9-3.7c4.9-4.9,4.9-12.9,0-17.8L411.1,457.2
			c2.4-0.1,4.7-0.3,7.1-0.3H544c7,0,12.6-5.6,12.6-12.6c0-6.9-5.6-12.6-12.6-12.6H418.2c-107.8,0-178.3,55.2-196.5,150
			c-0.6,1.4-0.9,2.9-0.9,4.3c-2.5,14.8-3.9,30.4-3.9,47v176.1c0,6.9,5.6,12.6,12.6,12.6h176.1c120.4,0,201.3-80.9,201.3-201.3V268.2
			c0-107,69.1-176.1,176.1-176.1h163.6v163.6c0,6.5-0.3,12.9-0.8,19.2L792,121c-4.9-4.9-12.9-4.9-17.8,0c-4.9,4.9-4.9,12.9,0,17.8
			l166.7,166.7c-7,29.9-20.6,55.4-39.7,75.5L691.3,171.3c-4.9-4.9-12.9-4.9-17.8,0c-4.9,4.9-4.9,12.9,0,17.8l208.9,208.7
			c-22.8,17-50.9,28.1-83.4,32.1L653.6,284.5c-4.9-4.9-12.9-4.9-17.8,0c-4.9,4.9-4.9,12.9,0,17.8l129.5,129.5H644.7
			c-7,0-12.6,5.6-12.6,12.6c0,6.9,5.6,12.6,12.6,12.6h125.8c120.4,0,201.3-80.9,201.3-201.3V79.5C971.8,72.6,966.2,66.9,959.2,66.9z
			"/>
	</g>
</g>
</svg>
