<?xml version="1.0" encoding="utf-8"?>
<!-- Generator: Adobe Illustrator 21.0.0, SVG Export Plug-In . SVG Version: 6.00 Build 0)  -->
<svg version="1.1" id="Layer_1" xmlns="http://www.w3.org/2000/svg" xmlns:xlink="http://www.w3.org/1999/xlink" x="0px" y="0px"
	 viewBox="0 0 1190.5 841.9" style="enable-background:new 0 0 1190.5 841.9;" xml:space="preserve">
<style type="text/css">
	.st0{fill:#47FFA6;stroke:#47FFA6;stroke-width:8;stroke-miterlimit:10;}
</style>
<g>
	<g>
		<path class="st0" d="M925.7,165.5c-40.1-40.1-93.2-61.3-149.1-61.3c-56.1,0-108.9,22.2-149.1,61.3l-16.9,16.9l-16.9-16.9
			c-40.1-40.1-93.2-61.3-149.1-61.3s-108.9,22.2-149.1,61.3c-82.3,82.3-82.3,215.8,0,297.2l298.1,298.1c4.3,4.3,9.6,6.5,15.7,6.5
			c5.3,0,11.8-2.2,15.7-6.5l298-298.1c40.1-40.1,61.3-93.2,61.3-149.1C987.1,258.6,964.9,205.6,925.7,165.5z M894,431.9L610.7,715.3
			L327.4,431.9c-64.5-64.5-64.5-170.1,0-234.7c31.7-31.7,73-48.6,117.4-48.6s85.7,16.9,117.4,48.6L595,230c8.4,8.4,22.2,8.4,31.7,0
			l32.8-32.8c31.7-31.7,73-48.6,117.4-48.6s85.7,16.9,117.4,48.6C958.5,261.7,958.5,367.5,894,431.9z"/>
	</g>
</g>
<g>
	<g>
		<path class="st0" d="M262.9,384.4h-81.4c-12.6,0-22.2,9.6-22.2,22.2s9.6,22.2,22.2,22.2h81.4c12.6,0,22.2-9.6,22.2-22.2
			C285.1,393.9,275.5,384.4,262.9,384.4z"/>
	</g>
</g>
<g>
	<g>
		<path class="st0" d="M957.4,384.4H745.1l-32.9-73c-2.2-5.3-7.3-8.4-13.8-8.4s-11.8,4.3-13.8,9.6L617,502.8l-82.3-227.3
			c-2.2-5.3-7.3-9.6-12.6-9.6c-6.5,0-11.8,3.1-13.8,8.4l-55.1,117.5h-183c-8.4,0-14.8,6.5-14.8,14.8c0,8.4,9.6,13.8,17.9,13.8h192.3
			c5.3,0,7.3-2.2,10.4-7.3l44.4-93.2L604,552.3c2.2,6.5,7.3,9.6,13.8,9.6l0,0c6.5,0,11.8-4.3,13.8-9.6L700.5,358l22.2,47.5
			c2.2,5.3,10.4,8.4,16.9,8.4h222c8.4,0,11.8-6.5,11.8-13.8C972.3,391.9,965.8,384.4,957.4,384.4z"/>
	</g>
</g>
<g>
	<g>
		<path class="st0" d="M1031.5,377.1h-66.6c-12.6,0-22.2,9.6-22.2,22.2s9.6,22.2,22.2,22.2h66.6c12.6,0,22.2-9.6,22.2-22.2
			S1043.2,377.1,1031.5,377.1z"/>
	</g>
</g>
</svg>
