<?xml version="1.0" encoding="utf-8"?>
<!-- Generator: Adobe Illustrator 21.0.0, SVG Export Plug-In . SVG Version: 6.00 Build 0)  -->
<svg version="1.1" id="Layer_1" xmlns="http://www.w3.org/2000/svg" xmlns:xlink="http://www.w3.org/1999/xlink" x="0px" y="0px"
	 viewBox="0 0 1190.5 841.9" style="enable-background:new 0 0 1190.5 841.9;" xml:space="preserve">
<style type="text/css">
	.st0{fill:#47FFA6;stroke:#47FFA6;stroke-width:17;stroke-miterlimit:10;}
</style>
<g>
	<g>
		<g>
			<g>
				<path class="st0" d="M608.2,132.1H538c-32.2,0-58.5,26.2-58.5,58.5c0,6.5,5.2,11.7,11.7,11.7s11.7-5.2,11.7-11.7
					c0-19.3,15.7-35.1,35.1-35.1h70.2c19.3,0,35.1,15.7,35.1,35.1c0,6.5,5.2,11.7,11.7,11.7s11.7-5.2,11.7-11.7
					C666.7,158.3,640.4,132.1,608.2,132.1z"/>
				<path class="st0" d="M865.4,225.6H280.8c-32.2,0-58.5,26.2-58.5,58.5v70.2c0,15.9,9.5,28.6,23.4,33.2v340.9
					c0,32.2,26.2,58.5,58.5,58.5h537.9c32.2,0,58.5-26.2,58.5-58.5v-304c0-6.5-5.2-11.7-11.7-11.7s-11.7,5.2-11.7,11.7v304
					c0,19.3-15.7,35.1-35.1,35.1H304.2c-19.3,0-35.1-15.7-35.1-35.1V377.6c0-6.5-5.2-11.7-11.7-11.7c-7.2,0-11.7-4.5-11.7-11.7V284
					c0-19.3,15.7-35.1,35.1-35.1h584.6c19.3,0,35.1,15.7,35.1,35.1v70.2c0,7.1-4.6,11.7-11.7,11.7h-58.5v-46.8
					c0-12.9-10.5-23.4-23.4-23.4h-23.4c-12.9,0-23.4,10.5-23.4,23.4v46.8H386v-46.8c0-12.9-10.5-23.4-23.4-23.4h-23.4
					c-12.9,0-23.4,10.5-23.4,23.4v46.8h-11.2c-6.5,0-11.7,5.2-11.7,11.7s5.2,11.7,11.7,11.7h22.9c6.5,0,11.7-5.2,11.7-11.7v-58.5
					h23.4v58.5c0,6.5,5.2,11.7,11.7,11.7h397.6c6.5,0,11.7-5.2,11.7-11.7v-58.5H807v58.5c0,6.5,5.2,11.7,11.7,11.7h70.2
					c20,0,35.1-15.1,35.1-35.1V284C923.9,251.9,897.7,225.6,865.4,225.6z"/>
				<path class="st0" d="M444.5,202.2c6.5,0,11.7-5.2,11.7-11.7c0-42.1,39.8-81.9,81.9-81.9h70.2c42.8,0,81.9,39,81.9,81.9
					c0,6.5,5.2,11.7,11.7,11.7s11.7-5.2,11.7-11.7c0-56.1-49.2-105.2-105.2-105.2H538c-55.1,0-105.2,50.2-105.2,105.2
					C432.8,197,438,202.2,444.5,202.2z"/>
				<path class="st0" d="M538,693.3h70.2c6.5,0,11.7-5.2,11.7-11.7v-58.5h58.5c6.5,0,11.7-5.2,11.7-11.7v-70.2
					c0-6.5-5.2-11.7-11.7-11.7h-58.5V471c0-6.5-5.2-11.7-11.7-11.7H538c-6.5,0-11.7,5.2-11.7,11.7v58.5h-58.5
					c-6.5,0-11.7,5.2-11.7,11.7v70.2c0,6.5,5.2,11.7,11.7,11.7h58.5v58.5C526.3,688.1,531.6,693.3,538,693.3z M479.6,599.8V553H538
					c6.5,0,11.7-5.2,11.7-11.7v-58.5h46.8v58.5c0,6.5,5.2,11.7,11.7,11.7h58.5v46.8h-58.5c-6.5,0-11.7,5.2-11.7,11.7V670h-46.8
					v-58.5c0-6.5-5.2-11.7-11.7-11.7H479.6z"/>
				<path class="st0" d="M771.9,412.7c-6.5,0-11.7,5.2-11.7,11.7v11.7c0,12.9,10.5,23.4,23.4,23.4H807c12.9,0,23.4-10.5,23.4-23.4
					v-11.7c0-6.5-5.2-11.7-11.7-11.7s-11.7,5.2-11.7,11.7v11.7h-23.4v-11.7C783.6,418,778.4,412.7,771.9,412.7z"/>
				<path class="st0" d="M327.6,412.7c-6.5,0-11.7,5.2-11.7,11.7v11.7c0,12.9,10.5,23.4,23.4,23.4h23.4c12.9,0,23.4-10.5,23.4-23.4
					v-11.7c0-6.5-5.2-11.7-11.7-11.7s-11.7,5.2-11.7,11.7v11.7h-23.4v-11.7C339.3,418,334,412.7,327.6,412.7z"/>
			</g>
		</g>
	</g>
</g>
</svg>
