<?xml version="1.0" encoding="utf-8"?>
<!-- Generator: Adobe Illustrator 21.0.0, SVG Export Plug-In . SVG Version: 6.00 Build 0)  -->
<svg version="1.1" id="Capa_1" xmlns="http://www.w3.org/2000/svg" xmlns:xlink="http://www.w3.org/1999/xlink" x="0px" y="0px"
	 viewBox="0 0 1190.5 841.9" style="enable-background:new 0 0 1190.5 841.9;" xml:space="preserve">
<style type="text/css">
	.st0{fill:#47FFA6;stroke:#47FFA6;stroke-width:0.5;stroke-miterlimit:10;}
</style>
<g>
	<circle class="st0" cx="791.7" cy="561.3" r="14"/>
	<circle class="st0" cx="819.8" cy="799.8" r="14"/>
	<circle class="st0" cx="469" cy="687.5" r="14"/>
	<circle class="st0" cx="693.5" cy="603.4" r="14"/>
	<circle class="st0" cx="904" cy="673.5" r="14"/>
	<circle class="st0" cx="384.8" cy="799.8" r="14"/>
	<path class="st0" d="M413.9,181c-54.7-54.7-143.7-54.7-198.4,0c-26.5,26.5-41.1,61.7-41.1,99.2s14.6,72.7,41.1,99.2l218.3,218.3
		l198.4-198.4L413.9,181z M235.3,359.6c-21.2-21.2-32.9-49.4-32.9-79.4s11.7-58.2,32.9-79.4c21.9-21.9,50.6-32.8,79.4-32.8
		s57.5,10.9,79.4,32.8l198.4,198.4L433.7,558L235.3,359.6z"/>
	<path class="st0" d="M975.1,55.1C948.6,28.6,913.4,14,875.9,14s-72.7,14.6-99.2,41.1L558.4,273.4l198.4,198.4l218.3-218.3
		c26.5-26.5,41.1-61.7,41.1-99.2C1016.2,116.9,1001.6,81.6,975.1,55.1z M955.3,233.7L756.8,432.2L598.1,273.4L796.5,75
		c21.2-21.2,49.4-32.9,79.4-32.9s58.2,11.7,79.4,32.9s32.9,49.4,32.9,79.4S976.5,212.5,955.3,233.7z"/>
	<path class="st0" d="M735.6,505.1c0-31-25.2-56.1-56.1-56.1c-31,0-56.1,25.2-56.1,56.1c0,31,25.2,56.1,56.1,56.1
		C710.4,561.3,735.6,536.1,735.6,505.1z M651.4,505.1c0-15.5,12.6-28.1,28.1-28.1s28.1,12.6,28.1,28.1c0,15.5-12.6,28.1-28.1,28.1
		S651.4,520.6,651.4,505.1z"/>
	<path class="st0" d="M581.2,561.3c-31,0-56.1,25.2-56.1,56.1c0,31,25.2,56.1,56.1,56.1c31,0,56.1-25.2,56.1-56.1
		C637.4,586.4,612.2,561.3,581.2,561.3z M581.2,645.4c-15.5,0-28.1-12.6-28.1-28.1s12.6-28.1,28.1-28.1s28.1,12.6,28.1,28.1
		C609.3,632.9,596.7,645.4,581.2,645.4z"/>
	<path class="st0" d="M721.6,645.4c-31,0-56.1,25.2-56.1,56.1s25.2,56.1,56.1,56.1c31,0,56.1-25.2,56.1-56.1
		S752.5,645.4,721.6,645.4z M721.6,729.6c-15.5,0-28.1-12.6-28.1-28.1s12.6-28.1,28.1-28.1s28.1,12.6,28.1,28.1
		S737,729.6,721.6,729.6z"/>
	<path class="st0" d="M581.2,715.6c-31,0-56.1,25.2-56.1,56.1c0,31,25.2,56.1,56.1,56.1c31,0,56.1-25.2,56.1-56.1
		C637.4,740.8,612.2,715.6,581.2,715.6z M581.2,799.8c-15.5,0-28.1-12.6-28.1-28.1s12.6-28.1,28.1-28.1s28.1,12.6,28.1,28.1
		S596.7,799.8,581.2,799.8z"/>
</g>
</svg>
