<?xml version="1.0" encoding="utf-8"?>
<!-- Generator: Adobe Illustrator 21.0.0, SVG Export Plug-In . SVG Version: 6.00 Build 0)  -->
<svg version="1.1" id="Capa_1" xmlns="http://www.w3.org/2000/svg" xmlns:xlink="http://www.w3.org/1999/xlink" x="0px" y="0px"
	 viewBox="0 0 93.7 93.7" style="enable-background:new 0 0 93.7 93.7;" xml:space="preserve">
<style type="text/css">
	.st0{fill:#555555;stroke:#555555;stroke-width:0.5;stroke-miterlimit:10;}
	.st1{fill:#555555;stroke:#555555;stroke-width:10;stroke-miterlimit:10;}
</style>
<path class="st0" d="M62.8,68.8c-5.3,5.1-12.3,7.9-19.6,7.9c-1.2,0-2.5-0.1-3.7-0.2c-15.4-2-26.3-16.2-24.3-31.6
	c2-15.4,16.2-26.3,31.6-24.3c0.4,0.1,0.8,0.1,1.2,0.2c0.6,0.1,1,0.5,1.2,1c0.2,0.5,0,1.1-0.4,1.5c-3.5,3.4-5.9,7.6-7,12.2h-3.1
	c1-4.5,3-8.6,5.9-12.1c-0.5,0-1,0-1.5,0c-12.5,0-23.3,9.3-25,21.9c-1.8,13.8,7.9,26.5,21.7,28.3c6.7,0.9,13.4-0.9,18.7-5
	c-4.6-1.3-8.7-3.8-12-7h4.6c3.1,2.3,6.8,4,10.9,4.7c0.6,0.1,1,0.5,1.2,1C63.4,67.9,63.2,68.4,62.8,68.8z M69.7,56.9
	c0-0.8-0.7-1.5-1.5-1.5h-7.1l8-8.1c0.4-0.4,0.5-1.1,0.3-1.6c-0.2-0.6-0.8-0.9-1.4-0.9H57.5c-0.8,0-1.5,0.7-1.5,1.5s0.7,1.5,1.5,1.5
	h7l-8,8.1c-0.4,0.4-0.5,1.1-0.3,1.6c0.2,0.6,0.8,0.9,1.4,0.9h10.7C69,58.4,69.7,57.7,69.7,56.9z M87.1,56.9c0-0.8-0.7-1.5-1.5-1.5
	h-7.1l8-8.1c0.4-0.4,0.5-1.1,0.3-1.6c-0.2-0.6-0.8-0.9-1.4-0.9H74.9c-0.8,0-1.5,0.7-1.5,1.5s0.7,1.5,1.5,1.5h7l-8,8.1
	c-0.4,0.4-0.5,1.1-0.3,1.6c0.2,0.6,0.8,0.9,1.4,0.9h10.7C86.4,58.4,87.1,57.7,87.1,56.9z M52.6,56.9c0-0.8-0.7-1.5-1.5-1.5H37.9
	L52,41.2c0.4-0.4,0.5-1.1,0.3-1.6c-0.2-0.6-0.8-0.9-1.4-0.9H34.3c-0.8,0-1.5,0.7-1.5,1.5c0,0.8,0.7,1.5,1.5,1.5h13L33.3,55.8
	c-0.4,0.4-0.5,1.1-0.3,1.6c0.2,0.6,0.8,0.9,1.4,0.9h16.7C51.9,58.4,52.6,57.7,52.6,56.9z"/>
<line class="st1" x1="225.7" y1="155.7" x2="271.5" y2="156.7"/>
<line class="st1" x1="225.7" y1="155.7" x2="271.5" y2="156.7"/>
</svg>
