<?xml version="1.0" encoding="utf-8"?>
<!-- Generator: Adobe Illustrator 21.0.0, SVG Export Plug-In . SVG Version: 6.00 Build 0)  -->
<svg version="1.1" id="Capa_1" xmlns="http://www.w3.org/2000/svg" xmlns:xlink="http://www.w3.org/1999/xlink" x="0px" y="0px"
	 viewBox="0 0 1190.5 841.9" style="enable-background:new 0 0 1190.5 841.9;" xml:space="preserve">
<style type="text/css">
	.st0{fill:#555555;stroke:#555555;stroke-width:26;stroke-miterlimit:10;}
</style>
<g>
	<g>
		<g>
			<g>
				<path class="st0" d="M765.6,823h-472c-29.7,0-54-24.3-54-54V158.1c0-29.7,24.3-54,54-54h79.5c5.9,0,10.8,4.8,10.8,10.8
					s-4.8,10.8-10.8,10.8h-79.5c-17.9,0-32.5,14.5-32.5,32.5V769c0,17.9,14.5,32.5,32.5,32.5h472c17.9,0,32.5-14.5,32.5-32.5V158
					c0-17.9-14.5-32.5-32.5-32.5h-79.5c-5.9,0-10.8-4.8-10.8-10.8c0-5.9,4.8-10.8,10.8-10.8h79.5c29.7,0,54,24.3,54,54v610.8
					C819.7,798.7,795.4,823,765.6,823z"/>
			</g>
		</g>
		<path class="st0" d="M686.2,209.3H373.1c-5.9,0-10.8-4.8-10.8-10.8V86.1c0-5.9,4.8-10.8,10.8-10.8h99.6c5-26.9,28.8-47.2,57-47.2
			c28.3,0,52,20.4,57,47.2h99.6c5.9,0,10.8,4.8,10.8,10.8v112.5C697,204.5,692.2,209.3,686.2,209.3z M384,187.7h291.5v-91H577
			c-5.9,0-10.8-4.8-10.8-10.8c0-20.2-16.3-36.4-36.4-36.4c-20.2,0-36.4,16.3-36.4,36.4c0,5.9-4.8,10.8-10.8,10.8H384V187.7
			L384,187.7z"/>
	</g>
	<path class="st0" d="M491.9,618.6c-4.2,0-8.2-2.4-9.9-6.4l-51-115.1h-90.1c-5.9,0-10.8-4.8-10.8-10.8c0-5.9,4.8-10.8,10.8-10.8
		h97.2c4.2,0,8.2,2.4,9.9,6.4l43,96.7l77.4-219.1c1.5-4.1,5.3-6.9,9.7-7.1c4.5-0.4,8.4,2.2,10.3,6.3l54.7,117h75.8
		c5.9,0,10.8,4.8,10.8,10.8s-4.8,10.8-10.8,10.8h-82.8c-4.1,0-8.1-2.4-9.8-6.3l-46.4-99.3l-77.6,219.9c-1.5,4.1-5.4,7-9.8,7.1
		C492.2,618.6,492,618.6,491.9,618.6z"/>
</g>
</svg>
