<?xml version="1.0" encoding="utf-8"?>
<!-- Generator: Adobe Illustrator 21.0.0, SVG Export Plug-In . SVG Version: 6.00 Build 0)  -->
<svg version="1.1" id="Layer_1" xmlns="http://www.w3.org/2000/svg" xmlns:xlink="http://www.w3.org/1999/xlink" x="0px" y="0px"
	 viewBox="0 0 1190.5 841.9" style="enable-background:new 0 0 1190.5 841.9;" xml:space="preserve">
<style type="text/css">
	.st0{fill:#47FFA6;stroke:#47FFA6;stroke-width:17;stroke-miterlimit:10;}
</style>
<g>
	<g>
		<g>
			<g>
				<path class="st0" d="M367.4,277.1h447.3c7.3,0,13.2-5.9,13.2-13.2V132.4C827.8,60.5,786.5,14,722.5,14H472.6
					c-67.5,0-118.4,50.9-118.4,118.4V264C354.2,271.2,360.1,277.1,367.4,277.1z M380.5,132.4c0-53.4,38.7-92.1,92.1-92.1h249.9
					c58.2,0,78.9,47.6,78.9,92.1v118.4h-421L380.5,132.4L380.5,132.4z"/>
				<path class="st0" d="M762,145.6H656.8c-0.5,0-0.9,0.2-1.3,0.3c-6-30.1-32.6-52.9-64.5-52.9c-31.8,0-58.5,22.8-64.5,52.9
					c-0.4,0-0.8-0.3-1.3-0.3H420c-7.3,0-13.2,5.9-13.2,13.2S412.7,172,420,172h105.2c0.5,0,0.9-0.2,1.3-0.3
					c6,30.1,32.6,52.9,64.5,52.9c31.8,0,58.5-22.8,64.5-52.9c0.4,0,0.8,0.3,1.3,0.3H762c7.3,0,13.2-5.9,13.2-13.2
					C775.2,151.4,769.3,145.6,762,145.6z M591,198.2c-21.8,0-39.5-17.7-39.5-39.5s17.7-39.5,39.5-39.5s39.5,17.7,39.5,39.5
					S612.7,198.2,591,198.2z"/>
				<path class="st0" d="M382.8,407.1c6.7,28.7,29.2,118.5,52.5,153.5c16.9,25.4,56.5,84.8,155.6,84.8s138.7-59.4,155.6-84.8
					c23.3-35,45.7-124.8,52.5-153.5c16.5-4.7,28.7-19.9,28.7-38v-52.6c0-7.3-5.9-13.2-13.2-13.2s-13.2,5.9-13.2,13.2v52.6
					c0,7.2-5.9,13.2-13.2,13.2c-6.2,0-11.5,4.3-12.8,10.3c-0.1,0.6-7.4,33-17.8,68.8c-0.3,0-0.5-0.2-0.8-0.2c-1,0-98.3-0.3-161-25.4
					c-3.2-1.2-6.6-1.2-9.8,0c-62.6,25-159.8,25.4-160.8,25.4c-0.3,0-0.6,0.2-1,0.2c-10.4-35.8-17.7-68.2-17.8-68.8
					c-1.3-6-6.7-10.3-12.8-10.3c-7.2,0-13.2-5.9-13.2-13.2v-52.6c0-7.3-5.9-13.2-13.2-13.2c-7.3,0-13.2,5.9-13.2,13.2v52.6
					C354.2,387.2,366.3,402.4,382.8,407.1z M591,462.2c57.5,21.5,134.9,24.8,158.6,25.3c-7.7,23.6-16.4,45.8-24.9,58.6
					c-15.8,23.7-48.7,73.1-133.8,73.1S473,569.8,457.2,546.1c-8.5-12.8-17.2-35-24.9-58.6C455.8,487,533.4,483.7,591,462.2z"/>
				<path class="st0" d="M985,786l-13.2-39.5c-16.1-48.2-58.1-74.5-233-74.8c-10.8-5.4-49.8-24.9-49.8-24.9
					c-4.7-2.3-10.4-1.7-14.4,1.8L591,720.2l-83.5-71.6c-4-3.4-9.7-4.1-14.4-1.8l-49.8,24.9c-12,0-23.3,0.2-34.1,0.4
					c-0.7-0.1-1.4-0.4-2.2-0.4c-1.1,0-2,0.4-3,0.6c-142,4.1-178.9,29.8-193.7,74.2L197,786c-2.3,6.9,1.4,14.3,8.3,16.6
					c6.9,2.3,14.3-1.4,16.6-8.3l13.2-39.5c7.2-21.5,16.8-50.3,158.5-55.8v0.9c-22.6,5.9-39.5,26.3-39.5,50.8
					c0,29,23.6,52.6,52.6,52.6s52.6-23.6,52.6-52.6c0-24.4-16.8-44.9-39.5-50.8v-1.6c8.4-0.2,17-0.3,26.2-0.3h0.1
					c2,0,4.1-0.5,5.9-1.4l44.8-22.4l80.9,69.3v46.6c0,7.3,5.9,13.2,13.2,13.2s13.2-5.9,13.2-13.2v-46.6l80.8-69.3
					c32.8,16.4,44.8,22.3,50.7,23.4v0.4c192.2,0,203.2,32.8,211.2,56.8l13.2,39.5c1.8,5.5,7,9,12.5,9c1.4,0,2.8-0.2,4.2-0.7
					C983.5,800.3,987.3,792.9,985,786z M433.1,750.7c0,14.5-11.8,26.3-26.3,26.3s-26.3-11.8-26.3-26.3s11.8-26.3,26.3-26.3
					C421.3,724.4,433.1,736.2,433.1,750.7z"/>
				<path class="st0" d="M630.5,356c-7.3,0-13.2,5.9-13.2,13.2c0,7.3,5.9,13.2,13.2,13.2h13.2c0,7.3,5.9,13.2,13.2,13.2
					s13.2-5.9,13.2-13.2h13.2c7.3,0,13.2-5.9,13.2-13.2c0-7.3-5.9-13.2-13.2-13.2H630.5z"/>
				<path class="st0" d="M498.9,356c-7.3,0-13.2,5.9-13.2,13.2c0,7.3,5.9,13.2,13.2,13.2h13.2c0,7.3,5.9,13.2,13.2,13.2
					s13.2-5.9,13.2-13.2h13.2c7.3,0,13.2-5.9,13.2-13.2c0-7.3-5.9-13.2-13.2-13.2H498.9z"/>
			</g>
		</g>
	</g>
</g>
</svg>
