<?xml version="1.0" encoding="utf-8"?>
<!-- Generator: Adobe Illustrator 21.0.0, SVG Export Plug-In . SVG Version: 6.00 Build 0)  -->
<svg version="1.1" id="Layer_1" xmlns="http://www.w3.org/2000/svg" xmlns:xlink="http://www.w3.org/1999/xlink" x="0px" y="0px"
	 viewBox="0 0 1190.5 841.9" style="enable-background:new 0 0 1190.5 841.9;" xml:space="preserve">
<style type="text/css">
	.st0{fill:#555555;}
</style>
<g transform="translate(0 -540.36)">
	<g>
		<g>
			<path class="st0" d="M686.2,837.4c0.8-3.9,1.3-8,1.3-12.6c0-43.2-38.7-78.5-86-78.5c-20.7,0-41.2,7.6-56.5,20.2
				c-15.9-12.9-36.1-20.2-57.1-20.2c-22.5,0-43.7,7.9-59.6,22.5c-16.3,14.9-25.2,34.8-25.2,56.1c0,5.7,0.6,11.1,1.6,16.2
				c-23.7,14.2-38.3,38.8-38.3,65.6c0,14.2,3.4,27,10.6,38.8c-6.9,11.6-10.6,25-10.6,38.6c0,27,13.6,50.9,37,65.7
				c-0.3,4-0.3,7.9-0.3,11.6c0,21.3,9,41.2,25.2,56.1c15.9,14.4,37,22.5,59.6,22.5c20.9,0,41-7.2,57.1-20.2
				c15.4,12.8,35.8,20.2,56.5,20.2c47.5,0,86-35.2,86-78.4c0-2.7-0.2-5.3-0.4-7.9c27.6-13.7,45.1-40.3,45.1-69.5
				c0-13.6-3.7-26.8-10.6-38.6c7.1-11.8,10.6-24.5,10.6-38.8C732.3,877.2,714,850.4,686.2,837.4z M692.3,954.6
				c6.9,8.4,10.3,18.6,10.3,29.3c0,20.2-14.9,38.8-36.9,46.1c-7.1,2.3-11.4,9.7-10,17c0.9,5.1,1.9,10,1.9,14.1
				c0,27-25.2,48.7-56.4,48.7c-17.2,0-34.8-8-44.6-20.6c-2.7-3.4-6.9-5.4-11.3-5.7c-0.2,0-0.2,0-0.3,0l0,0c-4.3,0-8.4,1.8-11,5.4
				c-11.4,13.2-28.2,20.9-46.1,20.9c-30.5,0-55.1-21.9-55.1-48.7c0-5.3,0-10.9,1.2-13.9c3-7.2-0.3-15.7-7.4-19
				c-19-9-30.5-25.7-30.5-44.6c0-10.8,3.6-20.8,10.3-29.3c4.4-5.4,4.4-13.2,0-18.8c-7.1-8.8-10.3-18.1-10.3-29.3
				c0-18.9,12.4-36.2,31.9-44.2c3.7-1.6,6.7-4.4,8.2-8.2c1.6-3.7,1.6-7.9-0.2-11.6c-2.3-5.3-3.4-11-3.4-18c0-27,24.8-48.7,55.1-48.7
				c17.7,0,34.5,7.6,46.1,20.9c3,3.4,7.1,5.3,11.6,5.2c4.4-0.2,8.4-2.2,11.3-5.7c10-12.6,27.3-20.6,44.6-20.6
				c31.1,0,56.4,21.9,56.4,48.7c0,5.4-1.8,10.8-3.9,16.8c-1.2,3.9-0.9,8.2,1,11.8c2,3.6,5.2,6.2,9.2,7.2c22.7,6.1,38.3,25,38.3,45.9
				c0,11.1-3.3,20.3-10.3,29.3C687.8,941.5,687.8,949.2,692.3,954.6z"/>
			<path class="st0" d="M575.2,917.3l-31.9,10.8l19.6-55.4c2.7-7.8-1.3-16.4-9-19c-7.8-2.7-16.3,1.3-19,9l-29.9,84.1
				c-1.9,5.4-0.6,11.4,3.4,15.4c4,4.1,10,5.4,15.2,3.7l31.7-10.8l-20.7,57.6c-2.8,7.8,1.2,16.2,9,19c1.6,0.6,3.4,0.9,5.1,0.9l0,0
				c6.1,0,11.8-3.9,14.2-10l30.9-86.5c2-5.3,0.6-11.4-3.4-15.4C586.5,916.8,580.5,915.5,575.2,917.3z"/>
			<path class="st0" d="M548.7,714.6L548.7,714.6L548.7,714.6z"/>
			<path class="st0" d="M524.3,665.8c4.4,3.7,10.6,4.4,15.8,2l2-0.9l-7.8,29.1c-2.1,7.9,2.7,16,10.6,18.1c1.3,0.3,2.6,0.4,3.9,0.4
				c6.6,0,12.7-4.4,14.1-11.1l16-60.2c1.6-5.7-0.4-11.6-4.9-15.2c-4.4-3.7-10.8-4.4-15.9-2l-2.3,1.2l7.1-28.3
				c2.1-7.9-2.7-15.9-10.8-18c-7.9-2.1-15.9,2.7-18,10.8l-14.9,59.1C517.9,656.3,519.8,662,524.3,665.8z"/>
			<path class="st0" d="M265.4,682.5l26.6,16.8c-4.9,2-8.4,6.6-9.2,11.9c-0.8,5.9,1.9,11.4,6.9,14.6l52.8,33
				c2.6,1.6,5.2,2.2,7.9,2.2c4.9,0,9.8-2.6,12.7-7c4.3-7,2.2-16.2-4.7-20.6l-25.2-15.7c4.9-1.9,8.3-6.4,9-11.8
				c0.8-5.9-1.9-11.4-6.9-14.6l-53.9-34c-7-4.4-16-2.3-20.6,4.7C256.3,669.1,258.4,678.1,265.4,682.5z"/>
			<path class="st0" d="M342.5,1127.3l-53.9,34c-5.1,3.1-7.6,8.8-6.9,14.6c0.8,5.3,4.3,9.8,9.3,11.8l-25.5,15.4
				c-7,4.1-9.2,13.3-4.9,20.3c2.7,4.7,7.6,7.1,12.7,7.1l0,0c2.6,0,5.2-0.6,7.9-1.9l53.9-33c5.1-3,7.8-8.8,7-14.6
				c-0.8-5.7-4.7-10.3-10-12.1l26.2-16.4c7-4.4,9-13.6,4.7-20.6C358.5,1124.9,349.5,1122.8,342.5,1127.3z"/>
			<path class="st0" d="M573.9,1219c-4.4-3.7-10.8-4.4-15.9-2l-2.3,1.2l7.1-28.3c2.1-7.9-2.7-15.9-10.8-18
				c-7.9-2.1-15.9,2.7-18,10.8l-14.9,59.2c-1.3,5.7,0.6,11.4,5.1,15.2c4.4,3.7,10.6,4.4,15.8,1.9l1.9-0.9l-7.8,29.1
				c-2.1,7.9,2.7,16,10.6,18.1c1.3,0.3,2.6,0.4,3.9,0.4c6.6,0,12.7-4.4,14.1-11.1l16-60.2C580.4,1228.7,578.4,1222.7,573.9,1219z"/>
			<path class="st0" d="M548.7,1305.7L548.7,1305.7L548.7,1305.7z"/>
			<path class="st0" d="M748.3,761.1L748.3,761.1c2.7,0,5.4-0.8,7.9-2.3l52.8-33c4.9-3,7.6-8.8,6.9-14.6c-0.8-5.7-4.7-10.2-10-12.1
				l26.1-16.3c7-4.4,9-13.6,4.7-20.6c-4.4-7-13.6-9-20.6-4.7l-53.9,34c-5.1,3.1-7.6,8.8-6.9,14.6c0.9,5.4,4.7,10.1,9.8,11.9
				l-24.7,15.4c-7,4.3-9,13.6-4.7,20.6C738.5,758.6,743.4,761.1,748.3,761.1z"/>
			<path class="st0" d="M831.8,1203.1l-24.7-15.4c5.2-1.8,9-6.4,9.8-11.9c0.8-5.9-2-11.4-6.9-14.6l-53.9-34c-7-4.4-16-2.3-20.6,4.7
				c-4.6,7-2.3,16,4.7,20.6l26.2,16.4c-5.3,1.8-9.2,6.4-10,12.1c-0.8,5.9,2,11.4,6.9,14.6l52.8,33c2.6,1.6,5.2,2.2,7.9,2.2l0,0
				c5.1,0,9.8-2.3,12.7-7C840.9,1216.7,838.9,1207.5,831.8,1203.1z"/>
		</g>
	</g>
</g>
</svg>
