<?xml version="1.0" encoding="utf-8"?>
<!-- Generator: Adobe Illustrator 21.0.0, SVG Export Plug-In . SVG Version: 6.00 Build 0)  -->
<svg version="1.1" id="Capa_1" xmlns="http://www.w3.org/2000/svg" xmlns:xlink="http://www.w3.org/1999/xlink" x="0px" y="0px"
	 viewBox="0 0 1190.5 841.9" style="enable-background:new 0 0 1190.5 841.9;" xml:space="preserve">
<style type="text/css">
	.st0{fill:#47FFA6;stroke:#47FFA6;stroke-width:0.5;stroke-miterlimit:10;}
</style>
<g>
	<circle class="st0" cx="272.5" cy="519.2" r="14"/>
	<circle class="st0" cx="328.7" cy="519.2" r="14"/>
	<circle class="st0" cx="272.5" cy="575.3" r="14"/>
	<circle class="st0" cx="300.6" cy="547.2" r="14"/>
	<circle class="st0" cx="328.7" cy="575.3" r="14"/>
	<circle class="st0" cx="356.7" cy="603.4" r="14"/>
	<path class="st0" d="M857.5,224.5H623.9c22.3-15,41.1-37.3,41.1-70.2v-14H400.7c-26.4,0-52.2,4.5-76.8,13.4
		c-89.5,32.3-149.6,117.9-149.6,213v165.9c0,93.2,75.8,169,169,169h258.6c34.8,0,63.1-28.3,63.1-63.1v-14c0-15.9-5.9-30.4-15.5-41.4
		c26.2-10.9,43.6-34.8,43.6-63.8c0-18.1-6.8-34.7-17.9-47.1c24.5-9.5,42.9-31.6,45.6-58c1.8-17.6-3.2-35.2-13.8-49.3h156.2
		c20.5,0,39.9-9.9,53.3-27.2c16.1-20.8,18.5-47.7,6.7-71.9C910.6,240.3,885.5,224.5,857.5,224.5z M894.3,320.5L894.3,320.5
		c-8,10.4-19.3,16.3-31,16.3H665h-14H483c-7.8,0-14,6.3-14,14c0,7.8,6.3,14,14,14h168c11.8,0,23.2,5.1,31.2,13.9
		c8.1,9,11.9,20.5,10.7,32.5c-2.1,21.2-21.7,37.8-44.5,37.8H637h-12.7H497.1c-7.8,0-14,6.3-14,14c0,7.8,6.3,14,14,14h127.2
		c22.5,0,40.7,18.9,40.7,42.1c0,24.8-20,42.1-48.6,42.1h-7.5h-7h-76.7c-7.8,0-14,6.3-14,14c0,7.8,6.3,14,14,14h76.7
		c19.3,0,35.1,15.7,35.1,35.1v14c0,19.3-15.7,35.1-35.1,35.1H343.3c-77.7,0-140.9-63.2-140.9-140.9V366.7
		c0-83.3,52.7-158.4,131-186.6c21.6-7.8,44.2-11.7,67.3-11.7h234.1c-12.5,40.9-77.8,54.5-86.6,56.1H426.9c-7.8,0-14,6.3-14,14
		s6.3,14,14,14h122.6h17.3h290.8c20.5,0,34.3,13.2,40.4,25.5C905,292.5,903.6,308.3,894.3,320.5z"/>
	<path class="st0" d="M595.3,266.6c-7.8,0-14,6.3-14,14v28.1c0,7.8,6.3,14,14,14s14-6.3,14-14v-28.1
		C609.3,272.9,603,266.6,595.3,266.6z"/>
	<path class="st0" d="M637.4,266.6c-7.8,0-14,6.3-14,14v28.1c0,7.8,6.3,14,14,14s14-6.3,14-14v-28.1
		C651.4,272.9,645.1,266.6,637.4,266.6z"/>
	<path class="st0" d="M946.5,252.6c3.6,0,7.2-1.4,9.9-4.1l28.1-28.1c5.5-5.5,5.5-14.4,0-19.8s-14.4-5.5-19.8,0l-28.1,28.1
		c-5.5,5.5-5.5,14.4,0,19.8C939.3,251.2,942.9,252.6,946.5,252.6z"/>
	<path class="st0" d="M956.4,340.9c-5.5-5.5-14.4-5.5-19.8,0s-5.5,14.4,0,19.8l28.1,28.1c2.8,2.7,6.3,4.1,9.9,4.1
		c3.6,0,7.2-1.4,9.9-4.1c5.5-5.5,5.5-14.4,0-19.8L956.4,340.9z"/>
	<path class="st0" d="M890.4,210.5c7.8,0,14-6.3,14-14v-28.1c0-7.8-6.3-14-14-14s-14,6.3-14,14v28.1
		C876.3,204.2,882.6,210.5,890.4,210.5z"/>
	<path class="st0" d="M904.4,378.9c-7.8,0-14,6.3-14,14V421c0,7.8,6.3,14,14,14s14-6.3,14-14v-28.1
		C918.4,385.1,912.2,378.9,904.4,378.9z"/>
	<path class="st0" d="M1002.2,280.6h-28.1c-7.8,0-14,6.3-14,14s6.3,14,14,14h28.1c7.8,0,14-6.3,14-14S1009.9,280.6,1002.2,280.6z"/>
	<rect x="805.7" y="266.6" class="st0" width="28.1" height="56.1"/>
</g>
</svg>
