<?xml version="1.0" encoding="utf-8"?>
<!-- Generator: Adobe Illustrator 21.0.0, SVG Export Plug-In . SVG Version: 6.00 Build 0)  -->
<svg version="1.1" id="Capa_1" xmlns="http://www.w3.org/2000/svg" xmlns:xlink="http://www.w3.org/1999/xlink" x="0px" y="0px"
	 viewBox="0 0 1190.5 841.9" style="enable-background:new 0 0 1190.5 841.9;" xml:space="preserve">
<style type="text/css">
	.st0{fill:#555555;stroke:#555555;stroke-width:25;stroke-miterlimit:10;}
</style>
<g>
	<g>
		<path class="st0" d="M546.2,477.8c-1.8-3.1-5-4.9-8.6-4.9H404c-3.6,0-6.8,1.9-8.6,4.9l-63.4,110c-1.5-0.6-3-1-4.7-1H186
			c-6.5,0-11.7,5.3-11.7,11.8s5.2,11.7,11.7,11.7h141.2c1.7,0,3.2-0.3,4.7-1l63.5,110c1.8,3.1,5,4.9,8.6,4.9h133.6
			c3.6,0,6.8-1.8,8.6-4.9L613,603.5c1.8-3,1.8-6.8,0-9.9L546.2,477.8z M531.9,704.4H409.7l-61.1-105.8l61.1-105.8h122.2L593,598.5
			L531.9,704.4z"/>
		<path class="st0" d="M969,454.3H832l-60-104H638.4L571.5,466l66.8,115.8H772l60-104h137c6.5,0,11.7-5.3,11.7-11.7
			C980.8,459.6,975.6,454.3,969,454.3z"/>
		<path class="st0" d="M391.5,215.7l-62.9,109c-1.8,3.1-1.8,6.8,0,9.9l66.8,115.7c1.8,3.1,5,4.9,8.6,4.9h133.6
			c3.6,0,6.8-1.8,8.6-4.9L613,334.6c1.8-3.1,1.8-6.8,0-9.9l-61.8-107c0.2-0.2,0.5-0.3,0.7-0.5l91-107.9c4.2-5,3.5-12.4-1.4-16.6
			s-12.4-3.5-16.5,1.4L534,202c-0.5,0.7-0.7,1.3-1.1,2H411.8c-0.4-0.6-0.6-1.3-1.1-2l-91-107.9c-4.2-5-11.6-5.6-16.5-1.4
			c-5,4.2-5.6,11.6-1.4,16.6L391.5,215.7z M531.9,435.5H409.7l-61.1-105.9l61.1-105.8h122.2L593,329.6L531.9,435.5z"/>
	</g>
</g>
</svg>
