<?xml version="1.0" encoding="utf-8"?>
<!-- Generator: Adobe Illustrator 21.0.0, SVG Export Plug-In . SVG Version: 6.00 Build 0)  -->
<svg version="1.1" id="Capa_1" xmlns="http://www.w3.org/2000/svg" xmlns:xlink="http://www.w3.org/1999/xlink" x="0px" y="0px"
	 viewBox="0 0 1190.5 841.9" style="enable-background:new 0 0 1190.5 841.9;" xml:space="preserve">
<style type="text/css">
	.st0{fill:#47FFA6;stroke:#47FFA6;stroke-width:22;stroke-miterlimit:10;}
</style>
<g>
	<g>
		<path class="st0" d="M826.8,435c-57.1,0-104.3,42.9-111.3,98.2H560.2v-85.9c14.6-3.6,27.2-12.9,35.2-26.3l181.3-306.6
			c10.6-17.9,10.8-39.4,0.5-57.4c-10.3-18.1-28.9-28.9-49.7-28.9h-31.9C687.7,11.5,670.9,0,651.4,0c-22.4,0-77.2,17.2-77.2,49.1
			s54.8,49.1,77.2,49.1c24.7,0,45-18.4,48.4-42.1h27.7c10.6,0,20.1,5.5,25.3,14.7s5.1,20.1-0.3,29.3L571.2,406.7
			c-5.3,8.9-14.6,14.3-25,14.3s-19.7-5.3-25.1-14.4L334.7,100.1c-5.4-9.1-5.5-20.1-0.3-29.2c5.2-9.2,14.7-14.7,25.3-14.7h32.8
			c3.5,23.7,23.7,42.1,48.4,42.1c22.4,0,77.2-17.2,77.2-49.1S463.3,0,440.9,0c-19.5,0-36.3,11.5-44.2,28.1h-37
			c-20.8,0-39.4,10.8-49.7,28.9c-10.3,18.1-10.1,39.5,0.6,57.6L497,421c7.9,13.4,20.6,22.6,35.1,26.3v85.9H405.9
			c-85.1,0-154.3,69.2-154.3,154.3s69.2,154.3,154.3,154.3s154.3-69.2,154.3-154.3V561.3h155.3c6.9,55.3,54.1,98.2,111.3,98.2
			c61.9,0,112.3-50.4,112.3-112.3S888.7,435,826.8,435z M651.4,70.2c-17.3,0-47.1-13.9-49.1-21c2-7.2,31.8-21,49.1-21
			c11.6,0,21,9.4,21,21S663,70.2,651.4,70.2z M440.9,28.1c17.3,0,47.1,13.9,49.1,21c-2,7.2-31.8,21-49.1,21c-11.6,0-21-9.4-21-21
			S429.3,28.1,440.9,28.1z M532.1,687.5c0,69.6-56.7,126.3-126.3,126.3s-126.3-56.6-126.3-126.3c0-69.6,56.7-126.3,126.3-126.3
			h126.3V687.5z M826.8,631.4c-46.4,0-84.2-37.8-84.2-84.2s37.8-84.2,84.2-84.2s84.2,37.8,84.2,84.2
			C911,593.7,873.2,631.4,826.8,631.4z"/>
		<path class="st0" d="M826.8,491.1c-31,0-56.1,25.2-56.1,56.1s25.2,56.1,56.1,56.1c31,0,56.1-25.2,56.1-56.1
			S857.7,491.1,826.8,491.1z M826.8,575.3c-15.5,0-28.1-12.6-28.1-28.1s12.6-28.1,28.1-28.1s28.1,12.6,28.1,28.1
			S842.3,575.3,826.8,575.3z"/>
	</g>
</g>
</svg>
