<?xml version="1.0" encoding="utf-8"?>
<!-- Generator: Adobe Illustrator 21.0.0, SVG Export Plug-In . SVG Version: 6.00 Build 0)  -->
<svg version="1.1" id="Capa_1" xmlns="http://www.w3.org/2000/svg" xmlns:xlink="http://www.w3.org/1999/xlink" x="0px" y="0px"
	 viewBox="0 0 1190.5 841.9" style="enable-background:new 0 0 1190.5 841.9;" xml:space="preserve">
<style type="text/css">
	.st0{fill:#555555;stroke:#555555;stroke-width:8;stroke-miterlimit:10;}
</style>
<g>
	<path class="st0" d="M1002.2,406.9h-28.4C966.5,209.2,807.1,49.7,609.3,42.4V14c0-7.8-6.3-14-14-14s-14,6.3-14,14v28.4
		C383.5,49.7,224,209.2,216.8,406.9h-28.4c-7.8,0-14,6.3-14,14c0,7.8,6.3,14,14,14h28.4c7.3,197.7,166.7,357.2,364.5,364.5v28.4
		c0,7.8,6.3,14,14,14s14-6.3,14-14v-28.4c197.7-7.3,357.2-166.7,364.5-364.5h28.4c7.8,0,14-6.3,14-14
		C1016.2,413.2,1009.9,406.9,1002.2,406.9z M609.3,771.4v-27.7c0-7.8-6.3-14-14-14s-14,6.3-14,14v27.7
		C399,764.2,252.1,617.2,244.8,435h27.7c7.8,0,14-6.3,14-14c0-7.8-6.3-14-14-14h-27.7C252.1,224.6,399,77.7,581.2,70.5v27.7
		c0,7.8,6.3,14,14,14s14-6.3,14-14V70.5c182.3,7.2,329.2,154.1,336.4,336.4H918c-7.8,0-14,6.3-14,14c0,7.8,6.3,14,14,14h27.7
		C938.5,617.2,791.6,764.2,609.3,771.4z"/>
	<path class="st0" d="M763.7,406.9h-71.3c-6.2-42.9-40.1-76.9-83.1-83.1v-71.3c0-7.8-6.3-14-14-14s-14,6.3-14,14v71.3
		c-42.9,6.2-76.9,40.2-83.1,83.1h-71.3c-7.8,0-14,6.3-14,14c0,7.8,6.3,14,14,14h71.3c6.2,42.9,40.1,76.9,83.1,83.1v71.3
		c0,7.8,6.3,14,14,14s14-6.3,14-14V518c42.9-6.2,76.9-40.2,83.1-83.1h71.3c7.8,0,14-6.3,14-14C777.7,413.2,771.4,406.9,763.7,406.9z
		 M595.3,491.1c-38.7,0-70.2-31.5-70.2-70.2c0-38.7,31.5-70.2,70.2-70.2s70.2,31.5,70.2,70.2C665.4,459.6,634,491.1,595.3,491.1z"/>
</g>
</svg>
