<?xml version="1.0" encoding="utf-8"?>
<!-- Generator: Adobe Illustrator 21.0.0, SVG Export Plug-In . SVG Version: 6.00 Build 0)  -->
<svg version="1.1" id="Capa_1" xmlns="http://www.w3.org/2000/svg" xmlns:xlink="http://www.w3.org/1999/xlink" x="0px" y="0px"
	 viewBox="0 0 1190.5 841.9" style="enable-background:new 0 0 1190.5 841.9;" xml:space="preserve">
<style type="text/css">
	.st0{fill:#47FFA6;stroke:#47FFA6;stroke-width:0.5;stroke-miterlimit:10;}
</style>
<g>
	<g>
		<g>
			<path class="st0" d="M752.1,654.3H445.2c-7.4,0-13.5-6-13.5-13.5s6-13.5,13.5-13.5H752c7.4,0,13.5,6,13.5,13.5
				S759.5,654.3,752.1,654.3z"/>
			<path class="st0" d="M372.2,727.4c-47.7,0-86.5-38.8-86.5-86.5s38.8-86.5,86.5-86.5s86.5,38.8,86.5,86.5S419.9,727.4,372.2,727.4
				z M372.2,581.3c-32.8,0-59.5,26.7-59.5,59.5s26.7,59.6,59.5,59.6s59.5-26.7,59.5-59.6S405.1,581.3,372.2,581.3z"/>
			<path class="st0" d="M825.1,727.4c-47.7,0-86.5-38.8-86.5-86.5s38.8-86.5,86.5-86.5s86.5,38.8,86.5,86.5
				C911.6,688.6,872.8,727.4,825.1,727.4z M825.1,581.3c-32.8,0-59.5,26.7-59.5,59.5s26.7,59.6,59.5,59.6s59.5-26.7,59.5-59.6
				S857.9,581.3,825.1,581.3z"/>
		</g>
		<path class="st0" d="M752.2,654.3H445.3c-7.4,0-13.5-6-13.5-13.5s6-13.5,13.5-13.5h306.9c7.4,0,13.5,6,13.5,13.5
			S759.6,654.3,752.2,654.3z"/>
		<path class="st0" d="M951.8,654.3H898c-7.4,0-13.5-6-13.5-13.5s6-13.5,13.5-13.5h53.7c20.7,0,37.5-16.8,37.5-37.5v-52.1
			c0-19.2-7.8-38-21.4-51.5l-60.5-60.1c-1.1-1.1-2.1-2.5-2.8-3.9L855,315c-10-21.6-31.8-35.6-55.7-35.6H244
			c-23.5,0-42.7,19.1-42.7,42.7V590c0,20.7,16.8,37.5,37.5,37.5h60.3c7.4,0,13.5,6,13.5,13.5s-6,13.5-13.5,13.5h-60.3
			c-35.5,0-64.4-28.9-64.4-64.4V322c0-38.4,31.3-69.7,69.7-69.7h555.3c34.3,0,65.8,20.1,80.2,51.2L928,408.7l58.8,58.4
			c18.7,18.6,29.4,44.3,29.4,70.6v52.1C1016.2,625.4,987.3,654.3,951.8,654.3z"/>
		<path class="st0" d="M811.3,469H530.8c-7.4,0-13.5-6-13.5-13.5c0-7.4,6-13.5,13.5-13.5h280.5c7.4,0,13.5,6,13.5,13.5
			S818.7,469,811.3,469z"/>
		<path class="st0" d="M367.4,466.8c-7.4,0-13.5-6-13.5-13.5V352.1c0-7.4,6-13.5,13.5-13.5c7.4,0,13.5,6,13.5,13.5v101.2
			C380.9,460.8,374.9,466.8,367.4,466.8z"/>
		<path class="st0" d="M418,416.2H316.8c-7.4,0-13.5-6-13.5-13.5s6-13.5,13.5-13.5H418c7.4,0,13.5,6,13.5,13.5
			S425.4,416.2,418,416.2z"/>
	</g>
	<path class="st0" d="M755,279.3h-87.6c-7.4,0-13.5-6-13.5-13.5v-18.2c0-31.6,25.7-57.3,57.3-57.3s57.3,25.7,57.3,57.3v18.2
		C768.5,273.3,762.5,279.3,755,279.3z M680.9,252.4h60.7v-4.7c0-16.7-13.6-30.3-30.3-30.3S681,231,681,247.7v4.7H680.9z"/>
	<path class="st0" d="M711.2,171.8c-7.4,0-13.5-6-13.5-13.5V128c0-7.4,6-13.5,13.5-13.5s13.5,6,13.5,13.5v30.3
		C724.7,165.8,718.7,171.8,711.2,171.8z"/>
	<g>
		<path class="st0" d="M764.7,192.6c-3.5,0-6.9-1.3-9.5-3.9c-5.3-5.3-5.3-13.8,0-19.1l21.1-21.1c5.3-5.3,13.8-5.3,19.1,0
			s5.3,13.8,0,19.1l-21,21C771.6,191.3,768.2,192.6,764.7,192.6z"/>
		<path class="st0" d="M657.7,192.6c-3.5,0-6.9-1.3-9.5-3.9l-21.1-21.1c-5.3-5.3-5.3-13.8,0-19.1s13.8-5.3,19.1,0l21.1,21.1
			c5.3,5.3,5.3,13.8,0,19.1C664.6,191.3,661.2,192.6,657.7,192.6z"/>
	</g>
</g>
</svg>
